<?xml version="1.0" encoding="UTF-8"?>
<svg id="Layer_2" data-name="Layer 2" xmlns="http://www.w3.org/2000/svg" viewBox="0 0 252.9 104.1">
  <g id="Layer_1-2" data-name="Layer 1">
    <g>
      <g>
        <path d="M159.7,21.7c-1.1.3-1.5,1.2-2.1,2.1,0,0,0,0,0,0,0,0-.1,0-.2,0-.5.7-.9,1.4-1.1,2.1,1.6-6.8,1-14.1-2-20.7-.3-.7-1,1.3-.7,1.9,2.3,5.2,3.1,10.7,2.3,16.1,0-1-.3-2.1-.6-3.1-.6-1.6-2.4-3.6-2-5.5.2-.9-.4-2.2-.8-.7-.3,1.3-.4,2.5,0,3.8.4,1.2,1.1,2.2,1.6,3.3,1.2,2.6,1,5.3-.3,7.9,0,.2-.1.5-.1.8-.4.8-.6,1.8-1.1,2.6-.3.6-.8,1-1.2,1.5,0-.5-.2-1-.3-1.5,0-.3,0-.6,0-.9,0-.5-.2-.8-.4-.2,0,0,0,0,0,.1,0,0,0,0,0,0,0,0,0,0,0,0,0,0,0,.2,0,.3,0,.8-.1,1.6-.3,2.3,0,.2-.1.5-.2.7,0,.1-.1.3-.2.4-.2.2-.6.5-.8.9,0,0,0,0,0,0-.1.1-.2.3-.3.4-.1.1-.3.3-.4.4-.1.1-.3.3-.4.4-.5.3-1,.5-1.5.8-.7.3-1.3.6-1.9.8,0,0,0,0-.1,0,0,0-.1,0-.2.1-.9.3-1.7.7-2.5,1.2-.7.3-1.4.6-2.1.9,0,0-.2,0-.2,0-.9.2-1.7.5-2.5.9,0,0-.2,0-.3.1,0-.3,0-.7,0-.9,0,0,0,0,0-.1,0,0,0-.1,0-.2,0,0,.2-.2.2-.3.3-.5.5-1.7.2-2.2-.1-.3-.2-.2-.3,0,0-.3,0-.5-.3-.7-.3-.2-.4.6-.4.7,0,.2,0,.4,0,.5-.4.4-1,2-1,2.1,0,.3-.1.5-.2.7-.2.2-.7.5-1.1.6-.3,0-.5,0-.7,0,0,0,0,0-.1,0-.3,0-.6,0-.7,0-.6,0-1.2.4-1.7.9,0,0-.2,0-.3,0-.2,0-.4,0-.6,0-.3,0-.5,0-.8,0,0,0,0,0-.1,0-1.7,0-3.2-.7-4.9-1-1.2-.2-2.4.2-3.5-.1,0,0,0,0-.1,0-1.2-.3-2.4-.5-3.6-.7-1.1-.4-2.2-.7-3.3-1.1-.1,0-.3-.1-.4-.2-.4-.2-.8-.4-1.2-.7,0,0,0-.2-.1-.2,0-.2,0-.3-.1-.5,0-.1,0-.2-.1-.3,0-.2.1-.6,0-.7-.1-.2-.4-.4-.6-.6-.2-.6-.5-1.2-.7-1.7-.1-.3-.1-.6-.5-.8-.2,0-.3.4-.3.5,0,.6,0,1.1.3,1.6,0,.1,0,.3,0,.3,0,0,0,0,0,0,0,.4,0,.8.1,1.1-2.3-1.7-4.3-3.8-6.2-6,.1-.1.1-.5.1-.6,0-.6-.2-1.2-.2-1.8,0-.4,0-.9-.2-1.2,0-.2-.2,0-.3,0,0,.1-.1.2-.1.3,0-.2-.3-.2-.4,0-.2.4-.2.8-.2,1.3,0,0,0,.1,0,.2-.4-.6-.8-1.1-1.3-1.7-.2-.8-.4-1.6-.5-2.4,0-.2,0-.4,0-.5,0,0,0-.1,0-.2-.1-1-.1-2.1-.1-3.2,0-.7,1.4-5.8,2.4-5.8.3,0,.4-.9.1-1.1-.9-.4-1.7.9-2.3,2.5-.4.3-.5.9-.7,1.5-.2.6-.4,1.1-.6,1.7-.2-.7-.5-1.6-.8-2.3,0-.6-.1-1.2-.1-1.8,0-.8,0-.1,0-.3,0-.6.2-1.2.2-1.8,0-2.7-1.1-3.1,1.4-4.8.2-.2.3-1.1,0-1,0,0-.2.1-.3.2.7-1.1,1.5-2.1,2.2-3.2.1-.2.2-.7,0-1h0s-.2,0-.2,0h-.2c0-.1-.2,0-.2,0-3.6,4.3-4.8,8.4-4.4,13.1,0,0-.1.2-.2.3,0-.2,0-.3,0-.5-.3-1.1-.8-1.6-1.7-2.3-.3-.2-.6-.6-1-.7-.4-.1-.8,0-1.2-.2-.3-.1-.4.9-.3,1,.5.7,1.1.5,1.8,1,1.5,1,1.9,2.4,2.1,4,.1,1.3.3,2.4,1,3.4-.1,1.2.2,1.8.8,2.9.1.2.2.5.3.7,0,0-.1,0-.2-.1-.5-.4-.7-.8-1.3-1-.3-.1-.7-.1-1-.2,0-.1,0-.3,0-.3h0c0-.1,0,0,0,0,0,0-.2-.1-.3-.2,0,0-.2-.1-.3-.2-.5-.8-1.3-1.4-1.8-2.2-.2-.3-.5.6-.3.9.4.7,1.1,1.3,1.5,2,0,.2,0,.4,0,.5.3.4.7.6,1.1.7,1.3,1.4,2.2,3,3.4,4.5.5.6,1.1,1.1,1.7,1.5,0,0,0,0,.1.1.8,1.7,2.3,3.6,3.7,4.9.4.4,1,.8,1.6,1.1,0,0,0,.1.1.1,0,0,.1,0,.2,0,.3.3.6.6.8.9-1,0-2,.1-3.1.4-.6.2-.7,2.4,0,2.2,2.2-.7,4.6-.6,6,1.1,0,.1-.1.3-.1.4,0,.4-.1.9.2.9.1,0,.3-.1.5-.3,0,0,0,0,0,0,0,0,0,0,0,0,.2.4.4.1.6-.1,0,0,.2,0,.2,0,0,0,.1,0,.2,0,0,0,.1,0,.2,0,.4,0,.7-.2,1.1-.2.6,0,1,.3,1.5.4,1.4.6,3.1.6,4.5,1.5.5.3,1.3.8,1.6,1.4.2.4.2.9.2,1.4,0,0,0,.2,0,.2-.1,1.1-.1,2.2-.2,3.3,0,1-.2,1.9-.4,2.9-.2.9-.5,1.8-.8,2.6h0c-.7,1.6-1.4,3-2.3,4.5-.3.5-.9.9-1.4,1.4-.7.6-1.7.8-2.8.7-1.5-.1-3-.2-4.5-.4-.8,0-1.5,0-2,.2-.5,0-.9.4-1.3.7,0,0-.1,0-.2,0,0,0,0,0,0,0-.2.1-.3.2-.4.3-.2,0-.5.2-.8.3-.6.2-1.9.1-2.3.8,0,0,0,.3,0,.5-.3.1-.6.2-.9.4-.9.5-.7,1.2-1.7,1.6-.3.1-.4,1.1,0,1,.6-.2.8-.5,1-.9,0,0,0,0,.1,0,.5-.3.9-.5,1.4-.6,0,.1,0,.2.2.1.1-.1.3-.2.5-.3,0,0,0,0,.1,0,.5-.1,1.1-.3,1.6-.5.3-.1.8-.3,1.2-.5,0,0,0,.1,0,.2.4,0,.7,0,1.1,0s.4,0,.7,0c.2-.1.5-.2.8-.2,0,0,0,.2,0,.3.7,0,1.4.2,2,.4-.2.3-.3.6-.3.7-.4.8-.5,1.8-.6,2.7,0,.5.3.6.5,0,.2-.8.5-1.4,1-2.1.3-.4.7-1.2,1.1-1.5.3-.2.6-.2.9-.3.2-.1.2-.4.4-.5.4-.3.9,0,1.3-.2,2.2-.1,4.3-.6,6.3-1.2.3,0,.5-.2.8-.2.7-.2,1-.1,1.2.3.5,1.3.2,1.6-2.1,2-1.1.2-2.1.3-3.2.5-.5,0-.9.3-1.3.4h0c0,0,.2,0,.2,0-.6.4-1.2,1-1.7,1.5-.4.2-.7.5-1,.8-.2.2-.2,1.1,0,1,.2-.1.3-.2.5-.3.3-.1.5-.3.7-.5,0,0,.1,0,.2-.1,0,.2,0,.4.2.4.8-.4,1.2-.9,2.1-1,.3,0,.5-.1.7-.2.2,0,.3,0,.5,0,.5-.1.9-.2,1.4-.3.2,0,.3,0,.5,0,.2,0,.3.1.5.2.8-.2,1.6-.3,2.4-.4.4,0,.7,0,1.1,0s.3,0,.4,0c.2.1.3.2.4.3.4.3.9.4,1.4.5.1,0,.2,0,.3.1,0,.1,0,.3.2.3,0,0,.2,0,.3,0,.1.2.3.3.4.5.1,0,.2,0,.3-.1.1,0,.3.2.4.3,0,0,0,0,0,0,.6.8,1.3,1.4,1.8,2.2,0,.1.1.2.2.3.3.4.5-.7.4-1,0-.1-.2-.3-.3-.4-.2-.4-.4-.8-.6-1.2-.3-.5-.5-1.1-.8-1.6,0,0,0-.1,0-.2,0,0,0,0,0,0,.1,0,.3-.1.4-.2-.2,0-.4-.2-.6-.3h0c0-.1,0,0-.1,0-.3-.1-.5-.2-.8-.3-.2-.1-.4-.3-.8-.4-.2,0-.4-.2-.6-.3,0,0-.1,0-.2,0-.2,0-.4-.2-.6-.3,0,0,0,0,0,0,0,0,0,0,0-.1,0-.5,1.4-1.1,2.2-.9,1.2.4,2.2.9,3.3,1.4.5.2.9.5,1.4.7,1.2,1.3,3.1,1.3,4.7,1.5,1.9.2,3.5,1.4,4.8,2.7.2.2.4-.8.3-1-.3-.5-.7-1-1.2-1.4,0-.2,0-.4-.1-.5-.2-.2-.4-.4-.6-.6.1,0,.2-.1.4-.1-.2,0-.4,0-.6,0-.9-.6-1.7-.4-3-.7,0,0,0,0,0,0-.6-.2-1.2-.5-1.8-.9-.8-.5-1.7-.9-2.6-1.4,0-.1-.2-.3-.3-.4,0,0,0,0,0,0,3.2-.5,5.8.2,7.5,1.9,0,0,.2.2.3.3.3.3.6.4.9,0,.2-.3.6-.3,1-.3,1.4,0,2.7.2,3.9.6.2,0,.5.2.8.2,0,.1.2.2.3.4l.3.3c.1,0,.3.1.5.2.7.4.9,1.1,1.3,1.7.3.4.5-.7.4-.9-.3-.5-.4-1.2-.9-1.6-.1-.1-.3-.2-.5-.3,0-.2,0-.3,0-.4h0s0,0,0,0c0,0,0-.1,0-.2,0,0,0,0,0,0,0,0,0,0,0,0,0,0,0-.2,0-.2v-.2c-.1,0-.2,0-.2,0-.1,0-.2.2-.3.4-.1,0-.3,0-.4-.2,0,0-.1-.2-.1-.3,0,0,0,0,0,0,.1,0,.2,0,.4,0,.6,0,1.2-.2,1.8-.3.3-.2.6-.4.9-.6,0,0-.2,0-.3,0-.7,0-1.3,0-2,0-1.9.2-3.7-.1-5.4-.7-1.1-.4-2.3-.6-3.4-1-2.8-.8-4.8-2.1-5.2-4-.4-1.6-.9-3.2-2.2-4.6-1.3-1.5-.9-2.6,1-3.8.7-.5,1.6-.9,2.4-1.3,1.6-.7,3.1-1.5,3.7-2.6.1-.2.2-.4.3-.7h-.2c-.3,0-.6.1-1,.2-1.1.4-2.1.7-3.2,1.1-.3,0-.6,0-1,0,0-.2,0-.4.2-.5,1-1,2-1.9,3-2.9,0,0,0,0,.1-.1.8-.4,1.6-.8,2.4-1.2.4-.1.9-.2,1.4-.3,0,0,0,0,0-.1,0,0,0,0,0,0,.9-.8,1.9-1.5,2.9-2.2.2,0,.4-.1.6-.2,0,0,0,0,.2,0,.2,0,.3-.1.4-.2.3-.1.7-.2,1-.4.4-.2.8-.4,1.2-.7,1.1-.5,2-.9,3.4-.6.3,0,.6.3,1,.2.4,0,.8-.3,1.1-.4.5-.2,1-.3,1.6-.3.2,0,.3-.4.3-.7.3-.2.5-.4.8-.7.6-.6,1.9-.8,1.9-1.9,0-.4-.2-.6-.4-.2.3-.6-.9,0-1,.1-.5.4-.8,1-1.4,1.3-.6.4-1.3.5-2,.5,0-.2,0-.4-.2-.4-.3,0-.7,0-1,0-.1,0-.2-.1-.3-.1,0,0,0,0,0,0,0,0,.2-.3.2-.5,1.4-1.2,2.7-2.5,3.7-4,1.6-2.4,1.2-5.8,3-8,0-.1.1-.3.2-.5,0,0,0-.2.1-.2.3-.4.5-.9.8-1.4,0-.1.1-.3.2-.4.3-.3.6-.5.9-.7.2-.1.4-1.1,0-1ZM97.8,17.5s0,0,0,0c0,0,0,0,0,0,0,0,0,0,0,0ZM97.9,17.2s0,0,0,0c0,.3,0,.2,0,0ZM98.7,23.3h0c0,0,0,0,0,0,0,0,0,.1,0,.2,0,0,0,0,0-.1ZM117.8,70.3s0,0,0,0c0,0,0,0,0,0,0,0,0,0,0,0ZM120,69.8c-.1,0-.3,0-.4,0,.2,0,.3,0,.5,0,0,0,0,0-.1,0ZM146.4,68.6s0,0,0,0c0,0,0,0,0,0,0,0,0,0,.1,0ZM132,67.1s0,0,0,0c0,0,0,0,0,0,0,0,0,0,0,0Z" fill="#343434" stroke-width="0"/>
        <path d="M116.6,34.9c1.6,0,2.9-.3,4-.9,1.1-.6,2.2-1.4,3.1-2.5h.1c.2,1,.6,1.8,1.3,2.4s1.6.8,2.8.8,1.3,0,1.8-.2c.5-.2,1.1-.4,1.9-.6v-1.4c-.5,0-1,0-1.5,0-.5,0-.8,0-1.1-.2-.4-.2-.7-.5-.9-.9-.2-.3-.3-.8-.3-1.4,0-1.6,0-3.1,0-4.5,0,0,0,0,0,0h0s1.8-1.7,1.8-1.7c1.4,1.8,2.8,3.7,4.2,5.6,1.3,1.9,2.6,3.7,3.8,5.4h6.7v-1.5c-1,0-1.8-.2-2.3-.5-.5-.3-1.1-.8-1.8-1.7-.7-.9-1.8-2.5-3.4-4.6-1.5-2.1-2.9-3.9-4.1-5.4,1.2-1.1,2.1-2,2.8-2.6.7-.7,1.2-1.2,1.5-1.5.5-.4,1.2-1,2.2-1.5s2.1-1,3.3-1.4v-1.4h-9.7v1.4c.6,0,1.2.2,1.9.4.7.2,1,.5,1,.9s0,.3-.2.5c-.1.2-.3.4-.4.5-.9,1-2.1,2.2-3.4,3.6-1.4,1.3-2.6,2.6-3.8,3.8v-2.2c0-.9,0-1.8,0-2.7s0-.3,0-.4V.3l-.3-.3-8.2.5v1.4c.4,0,.9,0,1.6.2.7,0,1.2.2,1.5.5.4.3.7.6.9,1.1.2.5.3,1,.3,1.6v6.8c-.2,0-.5-.1-.7-.2-.9-.2-2-.3-3.3-.3s-1.8.1-2.8.4c-1,.3-1.8.6-2.4,1.1-.8.5-1.4,1.1-1.9,1.7-.5.6-.7,1.3-.7,2s.2,1.3.5,1.8c.4.5.9.8,1.7.8s1.5-.2,2-.7c.5-.4.7-.9.7-1.4s0-1-.2-1.6c-.1-.6-.2-1-.2-1.3.2-.3.7-.5,1.2-.7.6-.2,1.2-.3,1.9-.3,1,0,1.8.2,2.3.6.5.4,1,.9,1.3,1.4.3.5.4,1,.5,1.6,0,.6.1.9.1,1.1v2.2c-.7.4-2.1.9-4.2,1.6-2.1.7-3.4,1.2-4.1,1.4-.5.2-1.1.5-1.7.8-.6.4-1.1.8-1.5,1.2-.5.5-.8,1.1-1.1,1.8-.2.7-.4,1.4-.4,2.3,0,1.6.5,3,1.6,4,1.1,1,2.4,1.5,4.1,1.5ZM116,26.3c.4-.7,1-1.3,1.8-1.8.8-.5,1.7-1,2.7-1.4,1-.4,2.1-.7,3.3-1.1v7.8c-.7.7-1.4,1.3-2.2,1.8-.8.5-1.7.8-2.8.8s-1.8-.3-2.5-.9c-.7-.6-1-1.5-1-2.7s.2-1.8.7-2.5Z" fill="#343434" stroke-width="0"/>
      </g>
      <g>
        <path d="M21.4,103.7h-8.6v-1c.8,0,1.4-.1,1.9-.3s.8-.3.8-.5,0-.2,0-.3c0-.1,0-.2,0-.3l-1.7-4.7h-7.3c-.3.7-.5,1.3-.7,1.8s-.3,1-.5,1.4c-.1.4-.2.8-.3,1,0,.3,0,.5,0,.6,0,.4.3.7.9.9s1.3.3,2.1.4v1H0v-1c.3,0,.6,0,1-.2.4,0,.7-.2.9-.4.4-.3.7-.5.9-.8.2-.3.4-.7.6-1.2,1-2.6,2.2-5.5,3.5-8.8s2.4-6.1,3.4-8.7h1.2l6.9,17.9c.1.4.3.7.5.9s.4.5.8.7c.2.1.5.3.9.3s.7.1.9.2v1ZM13.1,95.2l-3.1-8.1-3.1,8.1h6.3Z" fill="#343434" stroke-width="0"/>
        <path d="M34.4,91.1c0,.5-.1.9-.4,1.3-.2.4-.6.6-1.1.6s-1-.1-1.3-.4-.4-.6-.4-.9,0-.4,0-.6,0-.4,0-.5c-.5,0-1,.2-1.6.6s-1.1.9-1.6,1.6v8.4c0,.3,0,.6.2.8s.3.4.6.5c.2,0,.6.2.9.2s.7,0,1,.1v1h-7.6v-1c.2,0,.5,0,.7,0s.4,0,.6-.1c.3,0,.5-.2.6-.5.1-.2.2-.5.2-.9v-8.9c0-.3,0-.6-.2-.9-.1-.3-.3-.5-.6-.7-.2-.1-.4-.2-.7-.3-.3,0-.5,0-.8-.1v-1l4.8-.3.2.2v2h0c.6-.8,1.3-1.4,2-1.8s1.4-.6,2-.6,1.1.2,1.5.6.6.9.6,1.6Z" fill="#343434" stroke-width="0"/>
        <path d="M46.1,103c-.6.3-1.2.5-1.8.7-.6.2-1.3.3-2.1.3-1.2,0-2.1-.3-2.6-.9-.5-.6-.7-1.5-.7-2.6v-9.8h-2.6v-1.4h2.7v-4.5h2.7v4.5h4.1v1.4h-4.1v8.1c0,.6,0,1.1,0,1.5s.1.8.3,1.1c.2.3.4.5.7.6s.7.2,1.3.2.6,0,1.1,0c.5,0,.8,0,1-.2v1.1Z" fill="#343434" stroke-width="0"/>
        <path d="M64.7,103.7h-7.1v-1c.2,0,.5,0,.7,0s.5,0,.7-.1c.3,0,.5-.2.6-.5.1-.2.2-.5.2-.9v-7.4c0-1-.2-1.8-.7-2.4-.5-.6-1.1-.8-1.8-.8s-1,0-1.4.2c-.4.2-.8.4-1.2.6-.3.2-.6.5-.8.7s-.3.4-.4.6v8.3c0,.3,0,.6.2.8s.3.4.6.5c.2,0,.4.2.7.2s.5,0,.8.1v1h-7.1v-1c.2,0,.5,0,.7,0,.2,0,.4,0,.6-.1.3,0,.5-.2.6-.5.1-.2.2-.5.2-.9v-16.8c0-.3,0-.7-.2-1s-.3-.6-.6-.7c-.2-.1-.5-.2-.9-.3s-.8,0-1.1-.1v-.9l5.3-.3.2.2v10.1h0c.3-.3.6-.6.9-.9.3-.2.6-.5,1-.8.4-.2.8-.4,1.3-.6s1.1-.2,1.7-.2c1.3,0,2.3.4,3,1.2s1,2,1,3.5v7.5c0,.3,0,.6.2.8.1.2.3.4.6.5.2,0,.4.2.6.2.2,0,.4,0,.7,0v1Z" fill="#343434" stroke-width="0"/>
        <path d="M83.5,103.4l-4.7.3-.2-.2v-1.8h0c-.2.2-.5.5-.8.8-.3.3-.6.5-1,.8-.4.3-.9.5-1.3.6-.4.1-1,.2-1.7.2-1.3,0-2.2-.4-2.9-1.3s-1-2-1-3.6v-6.9c0-.4,0-.6-.2-.9-.1-.2-.3-.4-.6-.6-.2-.1-.4-.2-.7-.3-.3,0-.5,0-.8-.1v-1l4.8-.4.2.2v10c0,1,.2,1.8.7,2.4s1,.8,1.7.8,1,0,1.4-.2c.4-.2.8-.4,1.1-.6.3-.2.5-.4.7-.7.2-.2.4-.4.5-.6v-8.2c0-.3,0-.6-.2-.9-.1-.2-.3-.5-.6-.6-.2-.1-.4-.2-.8-.2-.3,0-.7,0-1.2,0v-1l5.3-.4.2.2v11.5c0,.3,0,.6.2.8s.3.4.6.6c.2.1.4.2.6.2s.5,0,.8,0v1Z" fill="#343434" stroke-width="0"/>
        <path d="M97.9,91.1c0,.5-.1.9-.4,1.3-.2.4-.6.6-1.1.6s-1-.1-1.3-.4-.4-.6-.4-.9,0-.4,0-.6,0-.4,0-.5c-.5,0-1,.2-1.6.6s-1.1.9-1.6,1.6v8.4c0,.3,0,.6.2.8s.3.4.6.5c.2,0,.6.2.9.2s.7,0,1,.1v1h-7.6v-1c.2,0,.5,0,.7,0s.4,0,.6-.1c.3,0,.5-.2.6-.5.1-.2.2-.5.2-.9v-8.9c0-.3,0-.6-.2-.9-.1-.3-.3-.5-.6-.7-.2-.1-.4-.2-.7-.3-.3,0-.5,0-.8-.1v-1l4.8-.3.2.2v2h0c.6-.8,1.3-1.4,2-1.8s1.4-.6,2-.6,1.1.2,1.5.6.6.9.6,1.6Z" fill="#343434" stroke-width="0"/>
        <path d="M129.9,103.7h-5.8c-1.1-1.7-2.4-3.5-3.7-5.2-1.4-1.7-2.8-3.4-4.3-5h-.4v7.2c0,.3,0,.6.2.9s.3.5.7.6c.2,0,.4.2.9.2.4,0,.8.2,1.1.2v1h-8.6v-1c.2,0,.6,0,1,0s.7,0,.9-.2c.3-.1.5-.3.6-.6.1-.2.2-.5.2-.9v-15c0-.3,0-.6-.2-.9-.1-.2-.3-.4-.7-.6-.3-.1-.6-.2-.9-.3s-.7-.2-1-.2v-1h8.6v1c-.3,0-.6,0-1,.1s-.7.2-.9.2c-.3.1-.6.3-.7.6s-.2.6-.2.9v7.2h.3c.9-.7,1.7-1.5,2.6-2.3.8-.8,1.6-1.6,2.3-2.4.8-.9,1.3-1.6,1.7-2.1s.5-1,.5-1.4,0-.3-.3-.4c-.2,0-.4-.2-.6-.2-.3,0-.5,0-.7-.1-.2,0-.4,0-.5,0v-1h7.8v1s0,0-.2,0-.2,0-.3,0c-.1,0-.3,0-.4,0-.1,0-.3,0-.5.1-.3,0-.7.2-1.1.4-.4.2-.7.4-.9.6-1,1.1-2.1,2.3-3.1,3.5-1.1,1.2-2.2,2.3-3.2,3.3,1.5,1.7,2.7,3.1,3.7,4.3,1,1.2,2,2.5,3.1,3.9.4.5.8,1,1.3,1.3.4.3.8.6,1.1.7.3.1.6.2.9.3s.7.1.9.1v1Z" fill="#343434" stroke-width="0"/>
        <path d="M145.8,96.3c0,1-.2,2-.5,3-.3,1-.8,1.8-1.4,2.5-.7.8-1.5,1.4-2.3,1.7-.9.4-1.9.6-3,.6s-1.8-.2-2.6-.5c-.8-.3-1.6-.9-2.2-1.5-.6-.7-1.1-1.5-1.5-2.4-.4-.9-.6-2-.6-3.2,0-2.3.7-4.1,2-5.5,1.3-1.4,3-2.2,5.2-2.2s3.7.7,5,2c1.3,1.4,2,3.2,2,5.4ZM142.8,96.3c0-.7,0-1.5-.2-2.3-.1-.8-.4-1.5-.7-2.1-.3-.6-.7-1.1-1.2-1.5-.5-.4-1.1-.5-1.9-.5s-1.4.2-1.9.6-1,.9-1.3,1.5c-.3.6-.5,1.3-.7,2-.1.8-.2,1.5-.2,2.2s0,1.8.2,2.6c.2.8.4,1.5.7,2.1.3.6.8,1.1,1.3,1.5.5.4,1.1.5,1.9.5,1.2,0,2.2-.6,2.9-1.8s1.1-2.8,1.1-4.9Z" fill="#343434" stroke-width="0"/>
        <path d="M160.5,91.1c0,.5-.1.9-.4,1.3-.2.4-.6.6-1.1.6s-1-.1-1.3-.4-.4-.6-.4-.9,0-.4,0-.6,0-.4,0-.5c-.5,0-1,.2-1.6.6s-1.1.9-1.6,1.6v8.4c0,.3,0,.6.2.8.1.2.3.4.6.5.2,0,.6.2.9.2s.7,0,1,.1v1h-7.6v-1c.2,0,.5,0,.7,0s.4,0,.6-.1c.3,0,.5-.2.6-.5.1-.2.2-.5.2-.9v-8.9c0-.3,0-.6-.2-.9-.1-.3-.3-.5-.6-.7-.2-.1-.4-.2-.7-.3-.3,0-.5,0-.8-.1v-1l4.8-.3.2.2v2h0c.6-.8,1.3-1.4,2-1.8s1.4-.6,2-.6,1.1.2,1.5.6.6.9.6,1.6Z" fill="#343434" stroke-width="0"/>
        <path d="M172.2,103c-.6.3-1.2.5-1.8.7-.6.2-1.3.3-2.1.3-1.2,0-2.1-.3-2.6-.9-.5-.6-.7-1.5-.7-2.6v-9.8h-2.6v-1.4h2.7v-4.5h2.7v4.5h4.1v1.4h-4.1v8.1c0,.6,0,1.1,0,1.5,0,.4.1.8.3,1.1.2.3.4.5.7.6s.7.2,1.3.2.6,0,1.1,0c.5,0,.8,0,1-.2v1.1Z" fill="#343434" stroke-width="0"/>
        <path d="M188,100.3c-.6,1.2-1.4,2.1-2.4,2.8s-2.2,1-3.5,1-2.2-.2-3.1-.6c-.9-.4-1.6-1-2.2-1.7s-1-1.5-1.3-2.5c-.3-.9-.4-1.9-.4-3s.1-1.9.4-2.8c.3-.9.7-1.7,1.3-2.4.6-.7,1.2-1.3,2.1-1.7.8-.4,1.8-.6,2.8-.6s2,.2,2.7.5,1.4.8,1.8,1.4c.4.5.8,1.2,1,1.9.2.7.3,1.5.3,2.4v1h-9.6c0,.9,0,1.8.3,2.6s.5,1.5.9,2c.4.6.9,1,1.5,1.3.6.3,1.3.5,2.2.5s1.6-.2,2.2-.6c.6-.4,1.2-1.1,1.8-2.2l1,.6ZM184.7,94.8c0-.5,0-1.1-.1-1.8s-.2-1.1-.4-1.6c-.2-.4-.5-.8-.9-1.1s-.9-.4-1.5-.4c-1,0-1.9.4-2.6,1.3-.7.9-1,2-1.1,3.6h6.7Z" fill="#343434" stroke-width="0"/>
        <path d="M206.5,103.7h-4.4c-.8-1.1-1.6-2.3-2.4-3.5-.9-1.3-1.8-2.5-2.7-3.7l-1.2,1.1v3.4c0,.4,0,.6.2.9.1.2.3.4.6.5.2,0,.5.2.7.2s.5,0,.7.1v1h-7.1v-1c.2,0,.5,0,.7,0,.2,0,.4,0,.6-.1.3,0,.5-.2.6-.5s.2-.5.2-.9v-16.8c0-.4,0-.7-.2-1-.2-.3-.3-.6-.6-.7-.2-.2-.5-.3-1-.3s-.8,0-1-.1v-.9l5.3-.3.2.2v15.3c.8-.8,1.6-1.6,2.5-2.5.9-.9,1.6-1.7,2.2-2.3,0,0,.2-.2.3-.3,0-.1.1-.3.1-.3,0-.3-.2-.5-.6-.6s-.8-.2-1.2-.3v-.9h6.4v.9c-.8.2-1.5.5-2.2.9-.6.4-1.1.7-1.4,1-.2.2-.6.5-1,1s-1,1-1.8,1.7c.8,1,1.7,2.2,2.7,3.5,1,1.4,1.7,2.4,2.2,3,.4.6.8,1,1.2,1.1s.8.3,1.5.3v1Z" fill="#343434" stroke-width="0"/>
        <path d="M222.5,103.4c-.5.2-.9.3-1.2.4-.3.1-.7.2-1.2.2-.8,0-1.4-.2-1.8-.5-.5-.4-.7-.9-.9-1.6h0c-.6.7-1.3,1.2-2,1.6s-1.6.6-2.6.6-2-.3-2.7-1-1-1.5-1-2.6,0-1.1.2-1.5.4-.8.7-1.2c.2-.3.6-.6,1-.8s.8-.4,1.1-.5c.4-.2,1.3-.5,2.7-.9s2.2-.8,2.7-1.1v-1.5c0-.1,0-.4,0-.7s-.2-.7-.3-1c-.2-.4-.5-.7-.8-.9s-.9-.4-1.5-.4-.9,0-1.3.2c-.4.2-.7.3-.8.5,0,.2,0,.5.1.9,0,.4.1.7.1,1.1s-.2.7-.5.9c-.3.3-.7.4-1.3.4s-.8-.2-1.1-.5c-.2-.3-.3-.7-.3-1.2s.2-.9.5-1.3c.3-.4.7-.8,1.2-1.1.4-.3,1-.5,1.6-.7.6-.2,1.2-.3,1.8-.3s1.5,0,2.1.2c.6.1,1.2.4,1.7.7.5.4.9.9,1.1,1.5.3.6.4,1.4.4,2.4,0,1.4,0,2.6,0,3.7s0,2.3,0,3.5,0,.7.2.9c.1.2.3.4.6.6.1,0,.4.1.7.1s.6,0,1,0v.9ZM217.4,95.7c-.8.2-1.6.5-2.2.7-.6.2-1.2.5-1.7.9-.5.3-.9.7-1.2,1.2s-.4,1-.4,1.6.2,1.4.6,1.8c.4.4,1,.6,1.6.6s1.3-.2,1.8-.5c.5-.3,1-.7,1.3-1.2v-5.1Z" fill="#343434" stroke-width="0"/>
        <path d="M239.1,103.4c-.5.2-.9.3-1.2.4-.3.1-.7.2-1.2.2-.8,0-1.4-.2-1.8-.5-.5-.4-.7-.9-.9-1.6h0c-.6.7-1.3,1.2-2,1.6s-1.6.6-2.6.6-2-.3-2.7-1-1-1.5-1-2.6,0-1.1.2-1.5.4-.8.7-1.2c.2-.3.6-.6,1-.8s.8-.4,1.1-.5c.4-.2,1.3-.5,2.7-.9s2.2-.8,2.7-1.1v-1.5c0-.1,0-.4,0-.7s-.2-.7-.3-1c-.2-.4-.5-.7-.8-.9s-.9-.4-1.5-.4-.9,0-1.3.2c-.4.2-.7.3-.8.5,0,.2,0,.5.1.9,0,.4.1.7.1,1.1s-.2.7-.5.9c-.3.3-.7.4-1.3.4s-.8-.2-1.1-.5c-.2-.3-.3-.7-.3-1.2s.2-.9.5-1.3c.3-.4.7-.8,1.2-1.1.4-.3,1-.5,1.6-.7.6-.2,1.2-.3,1.8-.3s1.5,0,2.1.2c.6.1,1.2.4,1.7.7.5.4.9.9,1.1,1.5.3.6.4,1.4.4,2.4,0,1.4,0,2.6,0,3.7s0,2.3,0,3.5,0,.7.2.9c.1.2.3.4.6.6.1,0,.4.1.7.1s.6,0,1,0v.9ZM234,95.7c-.8.2-1.6.5-2.2.7-.6.2-1.2.5-1.7.9-.5.3-.9.7-1.2,1.2s-.4,1-.4,1.6.2,1.4.6,1.8c.4.4,1,.6,1.6.6s1.3-.2,1.8-.5c.5-.3,1-.7,1.3-1.2v-5.1Z" fill="#343434" stroke-width="0"/>
        <path d="M251.6,96.6c.4.4.7.8.9,1.2s.3,1,.3,1.7c0,1.3-.5,2.4-1.5,3.3s-2.3,1.3-3.9,1.3-1.6-.2-2.3-.5-1.2-.6-1.5-.8l-.3,1h-1.1v-5c-.1,0,.9,0,.9,0,0,.4.2.8.5,1.3s.6,1,.9,1.4c.4.4.8.8,1.4,1.1.5.3,1.1.4,1.8.4s1.7-.2,2.2-.6c.5-.4.8-1,.8-1.8s0-.8-.2-1.1c-.2-.3-.4-.6-.7-.8-.3-.2-.7-.4-1.2-.6-.5-.2-1-.4-1.6-.5-.5-.1-1-.3-1.5-.6s-1-.5-1.4-.8c-.4-.3-.8-.8-1.1-1.3s-.4-1.1-.4-1.8c0-1.2.4-2.2,1.3-3s2.1-1.2,3.5-1.2,1.1,0,1.7.2c.6.1,1.1.3,1.4.5l.3-.8h1.1l.2,4.6h-1c-.2-1-.6-1.9-1.3-2.5s-1.5-1-2.5-1-1.4.2-1.9.6-.7.9-.7,1.5,0,.8.2,1.1.4.5.7.7c.3.2.7.4,1.1.5s1,.4,1.6.6c.6.2,1.3.4,1.8.7.6.3,1,.6,1.4.9Z" fill="#343434" stroke-width="0"/>
      </g>
    </g>
  </g>
</svg>