<svg xmlns="http://www.w3.org/2000/svg" viewBox="0 0 512 512"><path d="M304 48c0 26.5-21.5 48-48 48s-48-21.5-48-48S229.5 0 256 0s48 21.5 48 48zm-48 464c-26.5 0-48-21.5-48-48s21.5-48 48-48 48 21.5 48 48-21.5 48-48 48zm208-208c0 26.5-21.5 48-48 48s-48-21.5-48-48 21.5-48 48-48 48 21.5 48 48zm-416 0c0-26.5 21.5-48 48-48s48 21.5 48 48-21.5 48-48 48-48-21.5-48-48zm342.6 134.6c18.7-18.7 18.7-49.1 0-67.9s-49.1-18.7-67.9 0-18.7 49.1 0 67.9 49.1 18.7 67.9 0zm-275.2-275.2c-18.7 18.7-18.7 49.1 0 67.9s49.1 18.7 67.9 0 18.7-49.1 0-67.9-49.1-18.7-67.9 0zm275.2 0c-18.7-18.7-49.1-18.7-67.9 0s-18.7 49.1 0 67.9 49.1 18.7 67.9 0 18.7-49.1 0-67.9zm-275.2 275.2c18.7 18.7 49.1 18.7 67.9 0s18.7-49.1 0-67.9-49.1-18.7-67.9 0z"/></svg>
