<?xml version="1.0" encoding="UTF-8"?>
<svg id="makersmark_logo" data-name="makersmark logo" xmlns="http://www.w3.org/2000/svg" viewBox="0 0 81.1 84.9">
  <text transform="translate(14.4 22.2) rotate(121)" font-family="Georgia, Georgia" font-size="7.6"><tspan x="0" y="0">W</tspan></text>
  <text transform="translate(9.7 30.7) rotate(104.6)" font-family="Georgia, Georgia" font-size="7.6"><tspan x="0" y="0">W</tspan></text>
  <text transform="translate(7.6 40.1) rotate(88.6)" font-family="Georgia, Georgia" font-size="7.6"><tspan x="0" y="0">W</tspan></text>
  <text transform="translate(8.1 49) rotate(78.3)" font-family="Georgia, Georgia" font-size="7.6"><tspan x="0" y="0">.</tspan></text>
  <text transform="translate(8.7 52.1) rotate(70.5)" font-family="Georgia, Georgia" font-size="7.6"><tspan x="0" y="0">A</tspan></text>
  <text transform="translate(11.1 58.3) rotate(59)" font-family="Georgia, Georgia" font-size="7.6"><tspan x="0" y="0">R</tspan></text>
  <text transform="translate(14.8 64.2) rotate(47.8)" font-family="Georgia, Georgia" font-size="7.6"><tspan x="0" y="0">T</tspan></text>
  <text transform="translate(19.2 68.8) rotate(35.5)" font-family="Georgia, Georgia" font-size="7.6"><tspan x="0" y="0">H</tspan></text>
  <text transform="translate(26 73.3) rotate(21.6)" font-family="Georgia, Georgia" font-size="7.6"><tspan x="0" y="0">U</tspan></text>
  <text transform="translate(33.2 75.9) rotate(8.5)" font-family="Georgia, Georgia" font-size="7.6"><tspan x="0" y="0">R</tspan></text>
  <text transform="translate(40.2 76.8) rotate(-3.9)" font-family="Georgia, Georgia" font-size="7.6"><tspan x="0" y="0">K</tspan></text>
  <text transform="translate(47.2 76.1) rotate(-16.8)" font-family="Georgia, Georgia" font-size="7.6"><tspan x="0" y="0">O</tspan></text>
  <text transform="translate(54.3 73.7) rotate(-29.7)" font-family="Georgia, Georgia" font-size="7.6"><tspan x="0" y="0">R</tspan></text>
  <text transform="translate(60.2 70.1) rotate(-41.3)" font-family="Georgia, Georgia" font-size="7.6"><tspan x="0" y="0">T</tspan></text>
  <text transform="translate(64.8 65.9) rotate(-52.1)" font-family="Georgia, Georgia" font-size="7.6"><tspan x="0" y="0">E</tspan></text>
  <text transform="translate(68.7 60.7) rotate(-63.4)" font-family="Georgia, Georgia" font-size="7.6"><tspan x="0" y="0">K</tspan></text>
  <text transform="translate(71.7 54.4) rotate(-74.9)" font-family="Georgia, Georgia" font-size="7.6"><tspan x="0" y="0">A</tspan></text>
  <text transform="translate(73.2 48) rotate(-86)" font-family="Georgia, Georgia" font-size="7.6"><tspan x="0" y="0">A</tspan></text>
  <text transform="translate(73.5 41.5) rotate(-96)" font-family="Georgia, Georgia" font-size="7.6"><tspan x="0" y="0">S</tspan></text>
  <text transform="translate(72.9 36.3) rotate(-102.9)" font-family="Georgia, Georgia" font-size="7.6"><tspan x="0" y="0">.</tspan></text>
  <text transform="translate(72.2 33.1) rotate(-111.5)" font-family="Georgia, Georgia" font-size="7.6"><tspan x="0" y="0">N</tspan></text>
  <text transform="translate(69.2 26.3) rotate(-123.1)" font-family="Georgia, Georgia" font-size="7.6"><tspan x="0" y="0">L</tspan></text>
  <text transform="translate(66 21.8) rotate(-129.9)" font-family="MyriadPro-Regular, &apos;Myriad Pro&apos;" font-size="7.6"><tspan x="0" y="0"> </tspan></text>
  <text transform="translate(32.4 10)" font-family="MyriadPro-Regular, &apos;Myriad Pro&apos;" font-size="12"><tspan x="0" y="0"> </tspan></text>
  <text/>
  <g>
    <path d="M22.1,18c0,0,.1.2,0,.3,0,0,0,.2-.1.2,0,0-.2.1-.4.2s-.5.3-.8.5c.2,0,.4,0,.6.1.2,0,.3,0,.4,0,.1,0,.2,0,.3,0,0,0,.1,0,.2.1,0,0,0,.1,0,.2s0,.2-.1.2c0,0,0,0-.2,0,0,0-.1,0-.2,0,0,0-.2-.1-.4-.2-.2-.1-.4-.3-.8-.5.1.4.2.7.3.9,0,.2.2.3.2.4,0,0,0,.1,0,.2,0,0,0,0,0,.1,0,0-.1,0-.2,0,0,0-.2,0-.2,0,0,0,0-.1,0-.2s0-.2,0-.3c0-.1,0-.3,0-.5s0-.4,0-.6c-.2.2-.4.5-.5.7s-.3.4-.3.4c0,0-.2.1-.2.1,0,0-.2,0-.2-.1,0,0,0-.2,0-.2s0-.2.1-.2c0,0,.2-.1.4-.3.2-.1.5-.3.8-.5-.2,0-.4,0-.6-.1-.2,0-.4,0-.5,0-.1,0-.2,0-.3,0s-.1,0-.2-.1c0,0,0-.1,0-.2,0,0,0-.2.1-.2,0,0,0,0,.1,0,0,0,.1,0,.2,0,0,0,.2.1.5.3.2.1.5.3.8.4-.1-.3-.2-.6-.3-.8s-.2-.4-.2-.5c0,0,0-.1,0-.2,0,0,0-.1,0-.1,0,0,.1,0,.2,0,0,0,.2,0,.2,0,0,0,.1.3.1.5,0,.2,0,.6,0,1.1.2-.2.4-.5.6-.7.1-.2.2-.3.3-.4,0,0,.2-.1.2-.1s.2,0,.2.1Z" stroke-width="0"/>
    <path d="M31.3,13.1c0,.1,0,.2,0,.3,0,0-.1.1-.2.2,0,0-.2,0-.5,0s-.6,0-.9.2c.2.1.4.2.5.3.2,0,.3.1.4.2.1,0,.2.1.3.1,0,0,.1.1.1.2,0,0,0,.2,0,.2,0,0-.1.1-.2.2,0,0-.1,0-.2,0,0,0-.1,0-.2,0,0,0-.2-.2-.3-.4s-.3-.4-.6-.7c0,.4,0,.7,0,.9s0,.4,0,.5c0,0,0,.1,0,.2,0,0,0,0-.1.1,0,0-.2,0-.3,0,0,0-.2,0-.2-.2,0,0,0-.1,0-.2s0-.2,0-.3c0-.1,0-.2.2-.4,0-.2.1-.4.2-.6-.3.1-.5.3-.7.5-.2.2-.4.3-.4.3,0,0-.2,0-.3,0,0,0-.1,0-.2-.2,0,0,0-.2,0-.3,0,0,.1-.1.2-.2,0,0,.3,0,.5,0,.2,0,.5,0,.9-.2-.2-.1-.4-.2-.5-.3-.2,0-.3-.2-.4-.2-.1,0-.2-.1-.3-.2,0,0-.1-.1-.1-.2,0,0,0-.2,0-.2,0,0,.1-.1.2-.2,0,0,.1,0,.2,0,0,0,.1,0,.2,0,0,0,.2.2.3.4.2.2.4.4.6.6,0-.3,0-.6,0-.9,0-.2,0-.4,0-.5,0,0,0-.1,0-.2,0,0,0,0,.1-.1,0,0,.2,0,.3,0s.2,0,.2.2c0,.1,0,.3,0,.5,0,.2-.2.6-.4,1,.3-.2.6-.3.8-.5.2-.2.3-.2.4-.3,0,0,.2,0,.3,0,0,0,.1,0,.2.2Z" stroke-width="0"/>
    <path d="M41.8,11.7c0,.1,0,.2,0,.3s-.1,0-.3,0c0,0-.2,0-.5,0-.3,0-.6-.1-.9-.1.1.2.3.3.4.5s.2.2.3.3c0,0,.2.2.2.2s0,.1,0,.2c0,0,0,.2-.1.2,0,0-.2,0-.2,0,0,0-.1,0-.2,0,0,0,0,0-.1-.1,0,0-.1-.2-.2-.4,0-.2-.2-.5-.3-.9-.1.4-.2.7-.3.9,0,.2-.1.4-.1.4,0,0,0,.1-.1.1s0,0-.2,0c0,0-.2,0-.2,0s-.1-.1-.1-.2c0,0,0-.1,0-.2,0,0,.1-.2.2-.3,0,0,.2-.2.3-.3.1-.1.3-.3.4-.5-.3,0-.6,0-.9.2-.3,0-.4.1-.5.1-.1,0-.2,0-.3,0,0,0-.1-.1-.1-.3,0-.1,0-.2,0-.2s.1,0,.3,0c0,0,.3,0,.5,0,.2,0,.5.1.9.1-.1-.2-.3-.3-.4-.5-.1-.1-.2-.3-.3-.3,0,0-.2-.2-.2-.2s0-.1,0-.2c0,0,0-.2.1-.2,0,0,.2,0,.2,0,0,0,.1,0,.2,0,0,0,0,0,.1.1,0,0,.1.2.2.5,0,.3.2.5.3.8.1-.3.2-.6.3-.8,0-.2.1-.4.2-.5,0,0,0-.1.1-.1,0,0,.1,0,.2,0,0,0,.2,0,.2,0,0,0,.1.1.1.2,0,.1,0,.3-.3.5-.2.2-.4.5-.7.8.3,0,.6-.1.9-.2s.4-.1.5-.1c.1,0,.2,0,.3,0s.1.1.1.2Z" stroke-width="0"/>
    <path d="M52.1,14c0,.1,0,.2-.2.2,0,0-.2,0-.3,0,0,0-.2-.1-.4-.3-.2-.1-.5-.3-.8-.4,0,.2.1.4.2.6,0,.2.1.3.2.4,0,.1,0,.2.1.3,0,0,0,.2,0,.2,0,0,0,.1-.2.2,0,0-.2,0-.3,0,0,0,0,0-.1,0,0,0,0-.1,0-.2,0-.1,0-.3,0-.5,0-.2,0-.5,0-.9-.3.3-.5.5-.6.7s-.2.3-.3.4c0,0-.1,0-.2,0,0,0-.1,0-.2,0,0,0-.1,0-.2-.2s0-.2,0-.2c0,0,0-.1.1-.2,0,0,.2-.1.3-.2.1,0,.2-.1.4-.2.2,0,.3-.2.5-.3-.3,0-.6-.1-.9-.1-.3,0-.4,0-.5,0,0,0-.2,0-.2-.2,0,0,0-.2,0-.3,0,0,0-.2.2-.2,0,0,.2,0,.3,0,0,0,.2.1.4.3.2.1.5.3.8.4,0-.2-.1-.4-.2-.6,0-.2-.1-.3-.2-.4,0-.1,0-.2-.1-.3,0,0,0-.2,0-.2,0,0,0-.1.2-.2,0,0,.2,0,.3,0,0,0,0,0,.1,0,0,0,0,.1,0,.2,0,0,0,.3,0,.5,0,.3,0,.6,0,.9.2-.3.4-.5.6-.7.1-.2.2-.3.3-.4,0,0,.1,0,.2,0,0,0,.1,0,.2,0,0,0,.1,0,.2.2s0,.2,0,.2c0,.1-.2.2-.4.3-.2.1-.5.3-.9.5.3,0,.6.1.9.1.3,0,.4,0,.5,0,0,0,.2,0,.2.2,0,0,0,.2,0,.3Z" stroke-width="0"/>
    <path d="M60.9,19.6c0,0-.2.1-.2.1s-.2,0-.2,0c0,0-.2-.2-.3-.4-.2-.2-.4-.4-.6-.7,0,.2,0,.4,0,.6,0,.2,0,.3,0,.4,0,.1,0,.2,0,.3,0,0,0,.2,0,.2,0,0-.1,0-.2.1,0,0-.2,0-.2,0,0,0,0,0,0-.1,0,0,0-.1,0-.2,0-.1,0-.2.2-.4,0-.2.2-.5.3-.9-.3.2-.6.4-.8.5s-.3.2-.4.2c0,0-.1,0-.2,0,0,0-.1,0-.2,0,0,0-.1-.1-.1-.2,0,0,0-.2,0-.2,0,0,.1,0,.2-.1s.2,0,.3,0c.1,0,.3,0,.5,0,.2,0,.4,0,.6-.1-.3-.2-.5-.3-.8-.4-.2-.1-.4-.2-.5-.2,0,0-.1-.1-.1-.2,0,0,0-.2,0-.3,0,0,.1-.1.2-.1,0,0,.2,0,.3,0,0,0,.2.2.3.4.1.2.3.4.6.7,0-.2,0-.4,0-.6,0-.2,0-.4,0-.5,0-.1,0-.2,0-.3s0-.2,0-.2c0,0,.1,0,.2-.1,0,0,.2,0,.2,0,0,0,0,0,0,.1,0,0,0,.1,0,.2,0,0,0,.3-.2.5-.1.2-.2.5-.3.8.3-.2.6-.3.8-.5.2-.1.3-.2.4-.3,0,0,.1,0,.2,0,0,0,.1,0,.2,0,0,0,.1.1.1.2,0,0,0,.2,0,.2,0,0-.2.2-.5.2-.2,0-.6,0-1.1.2.3.2.5.3.8.4.2.1.4.2.4.2,0,0,.1.1.1.2,0,0,0,.2,0,.3Z" stroke-width="0"/>
  </g>
  <g>
    <polygon points="77.5 43 77.4 43.7 77.4 44.4 77.3 45.2 77.4 45.9 77.2 46.6 77.1 47.3 77 48 77 48.8 76.8 49.5 76.7 50.2 76.6 50.9 76.4 51.6 76.4 52.3 76.1 53 75.9 53.7 75.7 54.4 75.5 55.1 75.2 55.8 74.9 56.5 74.7 57.1 74.5 57.9 74.2 58.5 73.9 59.1 73.6 59.8 73.3 60.5 72.9 61.1 72.5 61.7 72.2 62.3 71.8 63 71.5 63.7 71.1 64.2 70.7 64.8 70.2 65.4 69.8 66 69.4 66.6 69 67.2 68.4 67.7 68 68.2 67.5 68.7 67 69.3 66.6 69.9 66 70.3 65.5 70.8 65 71.4 64.4 71.8 63.8 72.2 63.3 72.7 62.7 73.2 62.1 73.6 61.6 74.1 61 74.5 60.4 75 59.8 75.2 59.2 75.7 58.5 76 57.9 76.4 57.3 76.7 56.6 77 56 77.5 55.4 77.8 54.6 77.9 54 78.3 53.3 78.5 52.6 78.8 52 79 51.3 79.3 50.6 79.5 49.9 79.6 49.2 79.9 48.5 79.9 47.8 80.1 47 80.2 46.3 80.4 45.6 80.5 44.9 80.5 44.2 80.6 43.5 80.8 42.7 80.7 42 80.8 41.3 80.8 40.6 80.9 39.8 80.9 39.1 80.8 38.4 80.8 37.7 80.8 37 80.6 36.2 80.6 35.5 80.4 34.8 80.3 34.1 80.2 33.4 80.1 32.6 80 31.9 79.9 31.3 79.6 30.6 79.4 29.9 79.2 29.2 78.9 28.5 78.8 27.8 78.5 27.1 78.3 26.5 77.9 25.8 77.7 25.1 77.4 24.5 77.1 23.8 76.8 23.2 76.4 22.6 76 22 75.6 21.3 75.3 20.7 74.9 20.1 74.5 19.5 74.1 18.9 73.6 18.4 73.2 17.8 72.7 17.2 72.3 16.7 71.8 16.1 71.4 15.6 70.9 15.1 70.3 14.5 69.9 14.1 69.3 13.6 68.8 13.1 68.3 12.6 67.7 12.2 67.1 11.8 66.5 11.2 66 10.9 65.4 10.5 64.8 10.1 64.2 9.7 63.6 9.2 63 8.8 62.4 8.5 61.8 8.2 61.1 7.9 60.4 7.5 59.8 7.2 59.2 7 58.5 6.7 57.8 6.4 57.2 6.1 56.5 5.9 55.8 5.7 55.1 5.4 54.4 5.2 53.7 5 53 4.9 52.3 4.7 51.6 4.6 50.9 4.4 50.2 4.3 49.5 4.2 48.8 4 48.1 3.9 47.3 3.9 46.6 3.8 45.9 3.8 45.2 3.7 44.4 3.8 43.7 3.8 43 3.7 42.3 3.7 41.5 3.8 40.8 3.9 40.1 3.8 39.4 4 38.7 4 37.9 4.1 37.2 4.2 36.5 4.4 35.8 4.5 35.1 4.6 34.3 4.9 33.7 5 32.9 5.3 32.3 5.5 31.6 5.6 30.9 5.8 30.2 6.1 29.5 6.4 28.8 6.7 28.1 6.9 27.5 7.2 26.8 7.6 26.2 7.9 25.5 8.2 24.9 8.5 24.2 8.9 23.6 9.3 23 9.7 22.4 10 21.7 10.5 21.2 10.9 20.6 11.2 19.9 11.8 19.4 12.2 18.8 12.6 18.2 13.1 17.7 13.6 17.2 14.2 16.7 14.6 16.1 15.1 15.6 15.6 15.1 16.1 14.6 16.6 14.1 17.2 13.6 17.8 13.2 18.4 12.8 19 12.3 19.5 11.8 20.1 11.4 20.8 11.1 21.3 10.7 21.9 10.3 22.6 10 23.2 9.5 23.9 9.2 24.5 8.9 25.1 8.5 25.8 8.2 26.5 8 27.1 7.7 27.8 7.4 28.5 7.2 29.2 7 29.9 6.8 30.6 6.6 31.3 6.4 32 6.1 32.7 6 33.4 5.8 34.1 5.6 34.8 5.6 35.5 5.5 36.2 5.4 36.9 5.2 37.7 5.2 38.4 5.2 39.1 5.2 39.8 5.2 40.6 5.2 41.3 5 42 5.2 42.7 5.3 43.5 5.3 44.2 5.4 44.9 5.4 45.6 5.5 46.3 5.5 47.1 5.7 47.8 5.9 48.5 6 49.2 6.1 49.9 6.3 50.6 6.5 51.3 6.8 51.9 7 52.6 7.3 53.3 7.4 54 7.7 54.7 7.9 55.3 8.3 56 8.6 56.6 8.9 57.3 9.3 58 9.5 58.6 9.9 59.2 10.3 59.8 10.7 60.4 11 61 11.5 61.6 11.9 62.2 12.4 62.8 12.7 63.3 13.2 63.8 13.7 64.5 14.1 65 14.6 65.5 15.2 66 15.7 66.5 16.2 67 16.7 67.6 17.1 68 17.8 68.5 18.3 69 18.8 69.5 19.4 69.8 20 70.3 20.5 70.6 21.2 71 21.8 71.4 22.4 71.8 23 72.3 23.6 72.5 24.3 73 24.9 73.3 25.5 73.6 26.2 73.9 26.8 74.3 27.5 74.5 28.1 74.8 28.8 74.9 29.5 75.2 30.2 75.5 30.9 75.7 31.6 75.9 32.3 76.1 33 76.3 33.7 76.4 34.4 76.6 35.1 76.7 35.8 76.9 36.5 77 37.2 77.1 37.9 77.2 38.6 77.2 39.4 77.2 40.1 77.4 40.8 77.3 41.5 77.4 42.3 77.5 43" fill="none" stroke="#222221" stroke-miterlimit="10" stroke-width="2"/>
    <polygon points="66.6 43 66.5 43.7 66.5 44.4 66.4 45.2 66.4 45.9 66.2 46.6 66.1 47.3 66 48 65.9 48.8 65.7 49.4 65.6 50.2 65.4 50.9 65.2 51.6 65 52.3 64.7 52.9 64.4 53.6 64.1 54.3 63.8 54.9 63.4 55.5 63.1 56.2 62.7 56.8 62.4 57.5 62 58 61.6 58.6 61.2 59.3 60.7 59.8 60.2 60.4 59.7 60.9 59.3 61.4 58.8 62 58.3 62.6 57.8 63 57.2 63.5 56.6 63.9 56.1 64.4 55.5 64.9 54.9 65.3 54.3 65.6 53.6 66 53 66.3 52.4 66.7 51.8 67.1 51.1 67.3 50.4 67.6 49.8 67.9 49.1 68.1 48.4 68.3 47.7 68.6 47 68.7 46.3 68.9 45.6 69.1 44.9 69.3 44.2 69.5 43.5 69.4 42.7 69.6 42 69.6 41.3 69.6 40.6 69.6 39.8 69.6 39.1 69.7 38.4 69.6 37.7 69.4 36.9 69.5 36.2 69.2 35.5 69.2 34.8 69 34.1 68.9 33.4 68.7 32.7 68.3 32 68.2 31.4 67.9 30.7 67.6 30 67.3 29.3 67.1 28.7 66.7 28.1 66.3 27.5 66 26.8 65.7 26.3 65.2 25.6 64.8 25.1 64.3 24.4 64 23.9 63.5 23.4 63 22.9 62.5 22.3 62 21.9 61.4 21.4 60.9 20.9 60.3 20.5 59.8 20 59.2 19.6 58.6 19.1 58.1 18.7 57.5 18.4 56.8 18 56.2 17.7 55.5 17.4 54.9 17 54.3 16.7 53.6 16.5 52.9 16.3 52.2 15.9 51.6 15.8 50.9 15.6 50.2 15.4 49.5 15.2 48.8 15.2 48 15 47.3 14.9 46.6 14.8 45.9 14.7 45.2 14.6 44.4 14.6 43.7 14.6 43 14.7 42.3 14.6 41.5 14.7 40.8 14.7 40.1 14.8 39.4 15 38.7 15 37.9 15.3 37.2 15.4 36.5 15.5 35.8 15.8 35.1 16 34.4 16.2 33.7 16.4 33 16.8 32.4 17.1 31.7 17.4 31.1 17.7 30.4 18 29.8 18.3 29.1 18.7 28.5 19.1 27.9 19.6 27.3 19.9 26.7 20.4 26.1 20.9 25.6 21.4 25.1 21.8 24.5 22.3 23.9 22.9 23.5 23.4 23 23.9 22.5 24.4 22 25 21.5 25.7 21.2 26.2 20.7 26.9 20.4 27.4 19.9 28.1 19.6 28.7 19.3 29.4 18.9 30 18.5 30.7 18.4 31.4 18 32 17.8 32.7 17.5 33.4 17.4 34.1 17.2 34.8 16.9 35.5 16.8 36.2 16.7 37 16.6 37.7 16.4 38.4 16.4 39.1 16.3 39.8 16.3 40.6 16.2 41.3 16.4 42 16.3 42.7 16.3 43.5 16.5 44.2 16.5 44.9 16.8 45.6 16.8 46.3 16.9 47 17.1 47.7 17.3 48.4 17.6 49.1 17.8 49.8 18 50.5 18.3 51.1 18.7 51.7 19 52.4 19.3 53.1 19.6 53.7 19.9 54.3 20.4 54.9 20.8 55.5 21.1 56.1 21.6 56.6 22.1 57.2 22.5 57.7 23 58.3 23.5 58.8 24 59.3 24.5 59.7 25.1 60.2 25.7 60.7 26.1 61.2 26.7 61.6 27.3 62 27.9 62.4 28.5 62.8 29.1 63.2 29.8 63.4 30.4 63.8 31.1 64.2 31.7 64.4 32.4 64.6 33.1 64.9 33.7 65.2 34.4 65.3 35.1 65.6 35.8 65.7 36.5 66 37.2 66.1 37.9 66.2 38.6 66.3 39.4 66.4 40.1 66.5 40.8 66.4 41.5 66.4 42.3 66.6 43" fill="none" stroke="#222221" stroke-miterlimit="10"/>
    <g>
      <path d="M33.7,62.6c-.2.1-.4.3-.5.4l-.4.4c-.1,0-.2.2-.4.2-.1,0-.2.2-.3.3-.1.1-.1.6,0,.6s.2-.1.4-.2c.2-.1.3-.2.5-.4,0,.1,0,.2.1.2s.2-.1.3-.2c0,0,.2-.1.2-.2.2-.1.4-.2.5-.2.4-.1.7-.2,1-.2.1,0,.3,0,.4-.1.1,0,.3,0,.5,0,.1,0,.1,0,.2,0s.1,0,.2,0c.5-.1.9-.2,1.4-.2.2,0,.4,0,.6,0h.2c.1,0,.2.1.2.2.2.2.6.3.9.3s0,0,.1,0c0,0,0,0,0,.1q0,0,.1,0c.1,0,.2.1.3.2s.1.2.2,0c0,0,.2.1.2.2h0c.4.5.8.9,1.1,1.4,0,0,0,.1.1.2.2.2.3-.4.2-.6,0,0-.1-.2-.2-.2-.1-.2-.2-.5-.4-.7-.1-.2-.2-.4-.3-.5,0-.1,0-.2-.1-.3,0,0-.1-.3,0-.4,0,0,.1,0,.2,0-.1,0-.2,0-.2-.1-.1,0-.2-.1-.3-.2-.3-.1-.6-.2-.9-.4-.1,0-.8-.4-.8-.5,0-.2.3-.3.5-.4.2-.1.5-.2.8-.1.7.2,1.3.5,1.9.8.3.1.5.3.8.4.7.8,1.8.8,2.8.9.8.1,1.6.5,2.2,1.1.2.1.3.2.5.4s.2.2.2.1c0-.1.2-.4,0-.5-.1-.3-.4-.5-.6-.8q0,0,0-.1c0,0,0-.1,0-.2,0,0-.1-.1-.1-.2l-.2-.2c0,0,.1,0,.1,0-.2,0-.3-.1-.5-.2-.1,0-.3-.1-.5-.1-.4,0-.8,0-1.1-.2-.4-.1-.7-.3-1.1-.5-.3-.2-.6-.4-.9-.5-.2,0-.3-.1-.5-.2,0,0-.2-.1-.2-.2,0,0-.1-.2-.2-.2,0,0,.2,0,.3,0,.1,0,.2,0,.4,0h.6c.4,0,.8,0,1.2.1.7.2,1.4.5,1.8.9h.1c0,.2.1.2.2.3.2.2.4.2.5,0,.1-.2.4-.2.6-.2.5,0,.9,0,1.4.1.2,0,.4,0,.6.1.2,0,.4.2.6.2h.1c.1,0,.2.2.2.3l.2.2c0,0,.2,0,.2,0,.4.2.5.6.8,1,.2.2.3-.4.2-.5-.1-.2-.2-.4-.3-.6-.1-.2-.2-.4-.5-.4,0,0,0,0,0,0,0,0,0-.2,0-.2,0-.1,0-.2,0-.4,0,0-.1.1-.2.2,0,0-.2,0-.2-.1s0-.1,0-.2c0,0,.6,0,.6,0,.2,0,.5,0,.6-.1.2-.1.4-.2.5-.4,0,0-.1,0-.2,0h-1.2c-1.1.1-2.2,0-3.2-.4-.6-.2-1.4-.4-2-.6-1.6-.5-2.8-1.2-3.1-2.3-.2-.9-.5-1.9-1.3-2.7-.8-.9-.5-1.5.6-2.2.4-.3.9-.5,1.4-.8.9-.4,1.8-.9,2.2-1.5,0-.1.1-.2.2-.4h-.1c-.2,0-.4,0-.6.1-.6.2-1.2.4-1.9.6-.2,0-.4,0-.6,0,0-.1,0-.2.1-.3.6-.6,1.2-1.1,1.8-1.7h0c.2-.2.5-.3.7-.4.2-.1.5-.2.6-.4.1,0,.3,0,.4-.1.1,0,.3,0,.4,0h0c.1,0,.2-.2.2-.2.1,0,.2-.1.3-.2.2-.2.4-.3.6-.5,0,0,0,0,.1,0,.2-.1.3-.2.5-.4,0,0,.1,0,.2-.1,0,0,.2,0,.2,0h0c0,0,0,0,0,0,0,0,.1,0,.1,0,0,0,0,0,.1,0h0c.2,0,.4-.2.6-.3.2-.1.4-.2.6-.4.6-.3,1.2-.5,2-.4.2,0,.4.2.6.1.2,0,.5-.2.6-.2.3-.1.6-.2.9-.2s.2-.2.2-.4c.2-.1.3-.2.5-.4.2-.2.5-.3.8-.5.1,0,.2-.2.3-.3s.1-.4,0-.5q0,0,0,0h-.2c0,0,0,0,0,0h0c0-.1-.3,0-.4,0s-.1,0-.2,0c0,0,0,0-.1,0-.3.2-.5.6-.8.8-.4.2-.8.3-1.2.3,0-.1,0-.2-.1-.2h-.3c0,0-.1,0-.2,0,0,0-.1,0-.1,0h0c0,0-.1,0-.1,0,.1,0,.2-.2.2-.3h0c.4-.4.7-.6,1-1s.6-.6.9-1.1c.1-.1.2-.2.2-.4.9-1.4.7-3.4,1.8-4.7,0,0,0-.2.1-.3,0,0,0-.1,0-.1.2-.2.3-.5.5-.8,0,0,0-.2.1-.2.2-.2.4-.3.5-.4-.1,0,0-.5-.2-.5-.6.2-.9.7-1.2,1.2h0q0,0-.1.1c-.3.4-.5.8-.6,1.2.9-4,.6-8.3-1.2-12.2-.2-.4-.6.8-.4,1.1,1.4,3.1,1.8,6.3,1.4,9.5,0-.6-.2-1.2-.4-1.8-.4-.9-1.4-2.1-1.2-3.2.1-.5-.2-1.3-.5-.4-.2.8-.2,1.5,0,2.2.2.7.6,1.3.9,1.9.7,1.5.6,3.1-.2,4.6,0,.1,0,.3,0,.5-.2.5-.4,1.1-.6,1.5-.2.4-.5.6-.7.9,0-.3-.1-.6-.2-.9,0-.2,0-.4,0-.5,0-.3-.2-.5-.2-.1h0v.2c0,.5,0,.9-.2,1.4,0,.1,0,.3-.1.4,0,0,0,.2-.1.2,0,0-.2.2-.2.2,0,0-.2.2-.2.3h-.1s0,0,0,.1h0c0,.1-.1.2-.1.2-.1.1-.2.2-.4.4-.3.2-.6.3-.9.5-.4.2-.8.4-1.1.5h0c0,0,0,0-.1,0-.5.2-1,.4-1.5.7,0,0-.1,0-.2,0s-.1,0-.2,0c-.1,0-.2.1-.4.1s-.2.1-.4.1c-.1,0-.2.1-.3.1h0c-.5.1-.9.2-1.3.5,0,0-.1,0-.1,0,0,0-.1,0-.2,0v-.5h0q0-.1,0-.2c0,0,.1-.1.1-.2.2-.3.3-1,.2-1.3,0-.2-.1-.1-.2,0,0-.2,0-.3-.2-.4-.2-.1-.2.4-.2.4,0,.1,0,.2,0,.3-.2.2-.6,1.2-.6,1.2,0,.2,0,.3-.1.4-.1.1-.4.3-.6.4h-.9c-.4,0-.7.2-1,.5h-.5c-.2,0-.3,0-.5,0h0c-1,0-1.9-.4-2.9-.6-.7-.1-1.4.1-2.1,0h0c-.7-.2-1.4-.3-2.1-.4-.6-.2-1.3-.4-1.9-.6-.2,0-.4-.2-.5-.3-.2,0-.4-.2-.4-.3,0,0,0-.2-.1-.2,0-.1,0-.2,0-.4v-.2c0-.2-.2-.4-.4-.5-.1-.4-.3-.7-.4-1,0-.2,0-.4-.3-.5-.1,0-.2.2-.2.3,0,.4,0,.6.2.9v.2c0,.2,0,.5,0,.6,0,0,0,0-.1,0s0,0-.1,0c0,0-.1-.1-.2-.2-.1-.1-.3-.2-.4-.4-.2-.2-.5-.5-.8-.7-.2-.2-.5-.5-.8-.8-.2-.2-.5-.5-.7-.8-.2-.2-.4-.4-.5-.6h0v-.2c0-.1,0-.3,0-.4s0-.3,0-.4,0-.2,0-.3v-.6c0-.1,0-.2-.1-.3,0,0,0,0-.1,0,0,0-.1.2-.1.3,0,0,0,0-.1,0s-.1,0-.1.1c-.1.3-.1.6-.1.9-.1-.2-.2-.3-.4-.5-.2-.2-.4-.4-.5-.7,0,0,0-.1,0-.2,0,0,0-.2,0-.2h0c0-.2,0-.4-.1-.5,0-.1,0-.2,0-.3v-.3c0,0,0,0,0-.1,0-.6,0-1.2,0-1.9s.8-3.4,1.4-3.4.2-.5,0-.6c-.5-.2-1,.5-1.4,1.5-.2.2-.3.5-.4.9s-.2.6-.4,1c-.1-.4-.3-.9-.5-1.4v-1.3h0c0-.1,0-.3,0-.5s0-.4,0-.5c0-1.6-.6-1.8.8-2.8.1-.1.2-.6,0-.6,0,0-.1,0-.2.1,0,0,0-.1.1-.2,0,0,0-.1.1-.2,0-.1.1-.2.2-.3.1-.2.3-.4.4-.6s.2-.3.3-.5c0-.1.2-.2.2-.4,0-.1,0-.3,0-.4h0c0,0,0,0,0-.1,0,0-.1,0-.1,0h0s0,0,0,0c-.2.1-.2.3-.4.4-.1.1-.2.3-.3.4-.2.3-.4.5-.5.8-.2.3-.3.5-.5.8-.1.3-.2.5-.4.8-.1.3-.2.5-.3.8,0,.3-.1.6-.2.8,0,.3,0,.6-.1.9,0,.3,0,.6,0,.9v.9c0,0,0,.1,0,.1,0,0,0-.2,0-.2s0-.2,0-.2c0-.1-.1-.2-.2-.4-.1-.2-.4-.4-.5-.6,0,0-.1-.1-.2-.2-.2-.1-.4-.4-.6-.4s-.5,0-.7-.1c-.2,0-.2.5-.2.6.3.4.6.3,1.1.6.9.6,1.1,1.4,1.2,2.3,0,.4,0,.9.2,1.3,0,.2.2.4.2.5.1.2,0,.4.1.6,0,.6.4,1.1.6,1.7h0c0,0,0,0-.1,0q0,0-.1-.1c-.2-.2-.4-.4-.5-.4h0c-.2,0-.4-.1-.6-.2,0,0,0-.1,0-.1-.1,0-.2-.1-.3-.2h0c0-.1,0-.2-.1-.2,0,0-.1-.1-.2-.2-.1-.1-.2-.2-.4-.4-.2-.2-.4-.4-.5-.6-.1-.2-.3.4-.2.5.2.3.4.5.6.8,0,.1.2.2.2.4h0v.3c0,0,0,.1.1.2,0,0,.1.1.2.2.1,0,.2.1.4.2.8.8,1.3,1.8,2,2.6.1.2.3.4.5.5.2.1.4.2.5.4.2.2.3.5.5.8.2.3.4.5.5.8.4.5.8.9,1.2,1.4.2.2.6.5.9.6,0,0,0,0,0,0,0,0,0,0,.1,0,.2.2.4.4.5.5-.6,0-1.2,0-1.8.2-.4.1-.4,1.4,0,1.3.8-.2,1.6-.4,2.3-.1.2,0,.5.2.6.3.1,0,.2.1.3.2,0,0,.2.1.2.2s0,.1,0,.1c0,.2-.1.4,0,.5,0,.2.3,0,.4,0,0,0,0,0,.1,0,0,0,0,.1,0,.1.1.1.2,0,.4-.1,0,0,.2,0,.2,0,.3,0,.6-.2.9,0,.4.1.8.2,1.2.4.4.1.9.2,1.3.4.3.1.5.2.8.4.3.2.8.5.9.8.1.3.1.6.1.9,0,.6,0,1.3-.1,1.9,0,.6-.1,1.1-.2,1.7-.1.4-.2.8-.4,1.2-.1.5-.4.9-.5,1.3-.2.4-.4.8-.6,1.3,0,.1-.2.3-.2.4-.2.3-.5.5-.8.8-.4.4-1,.5-1.6.4-.9,0-1.8-.1-2.6-.2-.5,0-.9,0-1.2.1-.2.1-.4.2-.6.3,0,0-.2.1-.2.1q0,0,0,.1c-.2.2-.4.2-.6.3-.4.1-1.1,0-1.4.5,0,0,0,.2,0,.3-.2,0-.4.1-.5.2-.5.3-.4.7-1,.9-.2,0-.2.6,0,.6.4-.1.5-.3.6-.5,0,0,0,0,0,0s.4-.2.4-.2c.1,0,.2-.1.4-.1h0c0,.1.1,0,.2,0,.2-.1.4-.2.6-.2.2,0,.5-.1.6-.2.2,0,.5-.3.7-.3h0c0,.1,0,.1,0,.1.2,0,.4,0,.5,0h.5c.2,0,.3-.1.5-.1,0,0,0,.1,0,.2.4,0,.8.1,1.2.2-.1.2-.2.4-.2.4-.2.5-.3,1.1-.4,1.6,0,.3.2.4.3,0,.1-.5.3-.8.6-1.2.2-.2.4-.7.6-.9.2-.1.4-.1.5-.2.1,0,.1-.2.2-.3.2-.2.5,0,.8-.1,1.3,0,2.5-.4,3.7-.7.2,0,.3-.1.5-.1.4-.1.6,0,.7.2.3.8.1.9-1.2,1.2-.6.1-1.2.2-1.9.3M23.1,31.8h0Z" fill="#010200" stroke-width="0"/>
      <path d="M34.1,42c.9,0,1.7-.2,2.3-.5s1.3-.8,1.8-1.5h0c.1.6.4,1.1.8,1.4s.9.5,1.6.5.8,0,1.1-.1c.3-.1.6-.2,1.1-.4v-.8h-.9c-.3,0-.5,0-.6-.1-.2-.1-.4-.3-.5-.5-.1-.2-.2-.5-.2-.8v-2.6h0l1.1-1c.8,1.1,1.6,2.2,2.5,3.3.8,1.1,1.5,2.2,2.2,3.2h3.9v-.9c-.6,0-1.1-.1-1.4-.3s-.6-.5-1.1-1c-.4-.5-1.1-1.5-2-2.7-.9-1.2-1.7-2.3-2.4-3.2.7-.6,1.2-1.2,1.6-1.5l.9-.9c.3-.2.7-.6,1.3-.9s1.2-.6,1.9-.8v-.8h-5.7v.8c.4,0,.7.1,1.1.2.4.1.6.3.6.5s0,.2-.1.3c0,.1-.2.2-.2.3-.5.6-1.2,1.3-2,2.1-.8.8-1.5,1.5-2.2,2.2v-13.7l-.2-.2-4.8.3v.8c.2,0,.5,0,.9.1.4,0,.7.1.9.3.2.2.4.4.5.6s.2.6.2.9v4c-.1,0-.3,0-.4-.1-.5-.1-1.2-.2-1.9-.2s-1.1,0-1.6.2-1.1.4-1.4.6c-.5.3-.8.6-1.1,1s-.4.8-.4,1.2.1.8.3,1.1c.2.3.5.5,1,.5s.9-.1,1.2-.4c.3-.2.4-.5.4-.8s0-.6-.1-.9c0-.4-.1-.6-.1-.8.1-.2.4-.3.7-.4.4-.1.7-.2,1.1-.2.6,0,1.1.1,1.4.4s.6.5.8.8.2.6.3.9,0,.5,0,.6v1.3c-.4.2-1.2.5-2.5.9-1.2.4-2,.7-2.4.8-.3.1-.6.3-1,.5-.4.2-.6.5-.9.7s-.5.6-.6,1.1c-.1.4-.2.8-.2,1.4,0,.9.3,1.8.9,2.3.6.5,1.5.8,2.5.8ZM33.8,37c.2-.4.6-.8,1.1-1.1s1-.6,1.6-.8,1.2-.4,1.9-.6v4.5c-.4.4-.8.8-1.2,1.1s-1,.5-1.6.5-1.1-.2-1.5-.5-.6-.9-.6-1.6.1-1,.4-1.4Z" fill="#010200" stroke-width="0"/>
    </g>
  </g>
</svg>