<?xml version="1.0" encoding="UTF-8"?>
<svg id="Layer_2" data-name="Layer 2" xmlns="http://www.w3.org/2000/svg" viewBox="0 0 67.3 75.3">
  <g id="Layer_1-2" data-name="Layer 1">
    <g>
      <path d="M67.1,21.7c-1.1.3-1.5,1.2-2.1,2.1,0,0,0,0,0,0,0,0-.1,0-.2,0-.5.7-.9,1.4-1.1,2.1,1.6-6.8,1-14.1-2-20.7-.3-.7-1,1.3-.7,1.9,2.3,5.2,3.1,10.7,2.3,16.1,0-1-.3-2.1-.6-3.1-.6-1.6-2.4-3.6-2-5.5.2-.9-.4-2.2-.8-.7-.3,1.3-.4,2.5,0,3.8.4,1.2,1.1,2.2,1.6,3.3,1.2,2.6,1,5.3-.3,7.9,0,.2-.1.5-.1.8-.4.8-.6,1.8-1.1,2.6-.3.6-.8,1-1.2,1.5,0-.5-.2-1-.3-1.5,0-.3,0-.6,0-.9,0-.5-.2-.8-.4-.2,0,0,0,0,0,.1,0,0,0,0,0,0,0,0,0,0,0,0,0,0,0,.2,0,.3,0,.8-.1,1.6-.3,2.3,0,.2-.1.5-.2.7,0,.1-.1.3-.2.4-.2.2-.6.5-.8.9,0,0,0,0,0,0-.1.1-.2.3-.3.4-.1.1-.3.3-.4.4-.1.1-.3.3-.4.4-.5.3-1,.5-1.5.8-.7.3-1.3.6-1.9.8,0,0,0,0-.1,0,0,0-.1,0-.2.1-.9.3-1.7.7-2.5,1.2-.7.3-1.4.6-2.1.9,0,0-.2,0-.2,0-.9.2-1.7.5-2.5.9,0,0-.2,0-.3.1,0-.3,0-.7,0-.9,0,0,0,0,0-.1,0,0,0-.1,0-.2,0,0,.2-.2.2-.3.3-.5.5-1.7.2-2.2-.1-.3-.2-.2-.3,0,0-.3,0-.5-.3-.7-.3-.2-.4.6-.4.7,0,.2,0,.4,0,.5-.4.4-1,2-1,2.1,0,.3-.1.5-.2.7-.2.2-.7.5-1.1.6-.3,0-.5,0-.7,0,0,0,0,0-.1,0-.3,0-.6,0-.7,0-.6,0-1.2.4-1.7.9,0,0-.2,0-.3,0-.2,0-.4,0-.6,0-.3,0-.5,0-.8,0,0,0,0,0-.1,0-1.7,0-3.2-.7-4.9-1-1.2-.2-2.4.2-3.5-.1,0,0,0,0-.1,0-1.2-.3-2.4-.5-3.6-.7-1.1-.4-2.2-.7-3.3-1.1-.1,0-.3-.1-.4-.2-.4-.2-.8-.4-1.2-.7,0,0,0-.2-.1-.2,0-.2,0-.3-.1-.5,0-.1,0-.2-.1-.3,0-.2.1-.6,0-.7-.1-.2-.4-.4-.6-.6-.2-.6-.5-1.2-.7-1.7-.1-.3-.1-.6-.5-.8-.2,0-.3.4-.3.5,0,.6,0,1.1.3,1.6,0,.1,0,.3,0,.3,0,0,0,0,0,0,0,.4,0,.8.1,1.1-2.3-1.7-4.3-3.8-6.2-6,.1-.1.1-.5.1-.6,0-.6-.2-1.2-.2-1.8,0-.4,0-.9-.2-1.2,0-.2-.2,0-.3,0,0,.1-.1.2-.1.3,0-.2-.3-.2-.4,0-.2.4-.2.8-.2,1.3,0,0,0,.1,0,.2-.4-.6-.8-1.1-1.3-1.7-.2-.8-.4-1.6-.5-2.4,0-.2,0-.4,0-.5,0,0,0-.1,0-.2-.1-1-.1-2.1-.1-3.2,0-.7,1.4-5.8,2.4-5.8.3,0,.4-.9.1-1.1-.9-.4-1.7.9-2.3,2.5-.4.3-.5.9-.7,1.5-.2.6-.4,1.1-.6,1.7-.2-.7-.5-1.6-.8-2.3,0-.6-.1-1.2-.1-1.8,0-.8,0-.1,0-.3,0-.6.2-1.2.2-1.8,0-2.7-1.1-3.1,1.4-4.8.2-.2.3-1.1,0-1,0,0-.2.1-.3.2.7-1.1,1.5-2.1,2.2-3.2.1-.2.2-.7,0-1h0s-.2,0-.2,0h-.2c0-.1-.2,0-.2,0-3.6,4.3-4.8,8.4-4.4,13.1,0,0-.1.2-.2.3,0-.2,0-.3,0-.5-.3-1.1-.8-1.6-1.7-2.3-.3-.2-.6-.6-1-.7-.4-.1-.8,0-1.2-.2-.3-.1-.4.9-.3,1,.5.7,1.1.5,1.8,1,1.5,1,1.9,2.4,2.1,4,.1,1.3.3,2.4,1,3.4-.1,1.2.2,1.8.8,2.9.1.2.2.5.3.7,0,0-.1,0-.2-.1-.5-.4-.7-.8-1.3-1-.3-.1-.7-.1-1-.2,0-.1,0-.3,0-.3h0c0-.1,0,0,0,0,0,0-.2-.1-.3-.2,0,0-.2-.1-.3-.2-.5-.8-1.3-1.4-1.8-2.2-.2-.3-.5.6-.3.9.4.7,1.1,1.3,1.5,2,0,.2,0,.4,0,.5.3.4.7.6,1.1.7,1.3,1.4,2.2,3,3.4,4.5.5.6,1.1,1.1,1.7,1.5,0,0,0,0,.1.1.8,1.7,2.3,3.6,3.7,4.9.4.4,1,.8,1.6,1.1,0,0,0,.1.1.1,0,0,.1,0,.2,0,.3.3.6.6.8.9-1,0-2,.1-3.1.4-.6.2-.7,2.4,0,2.2,2.2-.7,4.6-.6,6,1.1,0,.1-.1.3-.1.4,0,.4-.1.9.2.9.1,0,.3-.1.5-.3,0,0,0,0,0,0,0,0,0,0,0,0,.2.4.4.1.6-.1,0,0,.2,0,.2,0,0,0,.1,0,.2,0,0,0,.1,0,.2,0,.4,0,.7-.2,1.1-.2.6,0,1,.3,1.5.4,1.4.6,3.1.6,4.5,1.5.5.3,1.3.8,1.6,1.4.2.4.2.9.2,1.4,0,0,0,.2,0,.2-.1,1.1-.1,2.2-.2,3.3,0,1-.2,1.9-.4,2.9-.2.9-.5,1.8-.8,2.6h0c-.7,1.6-1.4,3-2.3,4.5-.3.5-.9.9-1.4,1.4-.7.6-1.7.8-2.8.7-1.5-.1-3-.2-4.5-.4-.8,0-1.5,0-2,.2-.5,0-.9.4-1.3.7,0,0-.1,0-.2,0,0,0,0,0,0,0-.2.1-.3.2-.4.3-.2,0-.5.2-.8.3-.6.2-1.9.1-2.3.8,0,0,0,.3,0,.5-.3.1-.6.2-.9.4-.9.5-.7,1.2-1.7,1.6-.3.1-.4,1.1,0,1,.6-.2.8-.5,1-.9,0,0,0,0,.1,0,.5-.3.9-.5,1.4-.6,0,.1,0,.2.2.1.1-.1.3-.2.5-.3,0,0,0,0,.1,0,.5-.1,1.1-.3,1.6-.5.3-.1.8-.3,1.2-.5,0,0,0,.1,0,.2.4,0,.7,0,1.1,0s.4,0,.7,0c.2-.1.5-.2.8-.2,0,0,0,.2,0,.3.7,0,1.4.2,2,.4-.2.3-.3.6-.3.7-.4.8-.5,1.8-.6,2.7,0,.5.3.6.5,0,.2-.8.5-1.4,1-2.1.3-.4.7-1.2,1.1-1.5.3-.2.6-.2.9-.3.2-.1.2-.4.4-.5.4-.3.9,0,1.3-.2,2.2-.1,4.3-.6,6.3-1.2.3,0,.5-.2.8-.2.7-.2,1-.1,1.2.3.5,1.3.2,1.6-2.1,2-1.1.2-2.1.3-3.2.5-.5,0-.9.3-1.3.4h0c0,0,.2,0,.2,0-.6.4-1.2,1-1.7,1.5-.4.2-.7.5-1,.8-.2.2-.2,1.1,0,1,.2-.1.3-.2.5-.3.3-.1.5-.3.7-.5,0,0,.1,0,.2-.1,0,.2,0,.4.2.4.8-.4,1.2-.9,2.1-1,.3,0,.5-.1.7-.2.2,0,.3,0,.5,0,.5-.1.9-.2,1.4-.3.2,0,.3,0,.5,0,.2,0,.3.1.5.2.8-.2,1.6-.3,2.4-.4.4,0,.7,0,1.1,0s.3,0,.4,0c.2.1.3.2.4.3.4.3.9.4,1.4.5.1,0,.2,0,.3.1,0,.1,0,.3.2.3,0,0,.2,0,.3,0,.1.2.3.3.4.5.1,0,.2,0,.3-.1.1,0,.3.2.4.3,0,0,0,0,0,0,.6.8,1.3,1.4,1.8,2.2,0,.1.1.2.2.3.3.4.5-.7.4-1,0-.1-.2-.3-.3-.4-.2-.4-.4-.8-.6-1.2-.3-.5-.5-1.1-.8-1.6,0,0,0-.1,0-.2,0,0,0,0,0,0,.1,0,.3-.1.4-.2-.2,0-.4-.2-.6-.3h0c0-.1,0,0-.1,0-.3-.1-.5-.2-.8-.3-.2-.1-.4-.3-.8-.4-.2,0-.4-.2-.6-.3,0,0-.1,0-.2,0-.2,0-.4-.2-.6-.3,0,0,0,0,0,0,0,0,0,0,0-.1,0-.5,1.4-1.1,2.2-.9,1.2.4,2.2.9,3.3,1.4.5.2.9.5,1.4.7,1.2,1.3,3.1,1.3,4.7,1.5,1.9.2,3.5,1.4,4.8,2.7.2.2.4-.8.3-1-.3-.5-.7-1-1.2-1.4,0-.2,0-.4-.1-.5-.2-.2-.4-.4-.6-.6.1,0,.2-.1.4-.1-.2,0-.4,0-.6,0-.9-.6-1.7-.4-3-.7,0,0,0,0,0,0-.6-.2-1.2-.5-1.8-.9-.8-.5-1.7-.9-2.6-1.4,0-.1-.2-.3-.3-.4,0,0,0,0,0,0,3.2-.5,5.8.2,7.5,1.9,0,0,.2.2.3.3.3.3.6.4.9,0,.2-.3.6-.3,1-.3,1.4,0,2.7.2,3.9.6.2,0,.5.2.8.2,0,.1.2.2.3.4l.3.3c.1,0,.3.1.5.2.7.4.9,1.1,1.3,1.7.3.4.5-.7.4-.9-.3-.5-.4-1.2-.9-1.6-.1-.1-.3-.2-.5-.3,0-.2,0-.3,0-.4h0s0,0,0,0c0,0,0-.1,0-.2,0,0,0,0,0,0,0,0,0,0,0,0,0,0,0-.2,0-.2v-.2c-.1,0-.2,0-.2,0-.1,0-.2.2-.3.4-.1,0-.3,0-.4-.2,0,0-.1-.2-.1-.3,0,0,0,0,0,0,.1,0,.2,0,.4,0,.6,0,1.2-.2,1.8-.3.3-.2.6-.4.9-.6,0,0-.2,0-.3,0-.7,0-1.3,0-2,0-1.9.2-3.7-.1-5.4-.7-1.1-.4-2.3-.6-3.4-1-2.8-.8-4.8-2.1-5.2-4-.4-1.6-.9-3.2-2.2-4.6-1.3-1.5-.9-2.6,1-3.8.7-.5,1.6-.9,2.4-1.3,1.6-.7,3.1-1.5,3.7-2.6.1-.2.2-.4.3-.7h-.2c-.3,0-.6.1-1,.2-1.1.4-2.1.7-3.2,1.1-.3,0-.6,0-1,0,0-.2,0-.4.2-.5,1-1,2-1.9,3-2.9,0,0,0,0,.1-.1.8-.4,1.6-.8,2.4-1.2.4-.1.9-.2,1.4-.3,0,0,0,0,0-.1,0,0,0,0,0,0,.9-.8,1.9-1.5,2.9-2.2.2,0,.4-.1.6-.2,0,0,0,0,.2,0,.2,0,.3-.1.4-.2.3-.1.7-.2,1-.4.4-.2.8-.4,1.2-.7,1.1-.5,2-.9,3.4-.6.3,0,.6.3,1,.2.4,0,.8-.3,1.1-.4.5-.2,1-.3,1.6-.3.2,0,.3-.4.3-.7.3-.2.5-.4.8-.7.6-.6,1.9-.8,1.9-1.9,0-.4-.2-.6-.4-.2.3-.6-.9,0-1,.1-.5.4-.8,1-1.4,1.3-.6.4-1.3.5-2,.5,0-.2,0-.4-.2-.4-.3,0-.7,0-1,0-.1,0-.2-.1-.3-.1,0,0,0,0,0,0,0,0,.2-.3.2-.5,1.4-1.2,2.7-2.5,3.7-4,1.6-2.4,1.2-5.8,3-8,0-.1.1-.3.2-.5,0,0,0-.2.1-.2.3-.4.5-.9.8-1.4,0-.1.1-.3.2-.4.3-.3.6-.5.9-.7.2-.1.4-1.1,0-1ZM5.3,17.5s0,0,0,0c0,0,0,0,0,0,0,0,0,0,0,0ZM5.4,17.2s0,0,0,0c0,.3,0,.2,0,0ZM6.2,23.3h0c0,0,0,0,0,0,0,0,0,.1,0,.2,0,0,0,0,0-.1ZM25.2,70.3s0,0,0,0c0,0,0,0,0,0,0,0,0,0,0,0ZM27.4,69.8c-.1,0-.3,0-.4,0,.2,0,.3,0,.5,0,0,0,0,0-.1,0ZM53.8,68.6s0,0,0,0c0,0,0,0,0,0,0,0,0,0,.1,0ZM39.4,67.1s0,0,0,0c0,0,0,0,0,0,0,0,0,0,0,0Z" fill="#373737" stroke-width="0"/>
      <path d="M24,34.9c1.6,0,2.9-.3,4-.9,1.1-.6,2.2-1.4,3.1-2.5h.1c.2,1,.6,1.8,1.3,2.4s1.6.8,2.8.8,1.3,0,1.8-.2c.5-.2,1.1-.4,1.9-.6v-1.4c-.5,0-1,0-1.5,0-.5,0-.8,0-1.1-.2-.4-.2-.7-.5-.9-.9-.2-.3-.3-.8-.3-1.4,0-1.6,0-3.1,0-4.5,0,0,0,0,0,0h0s1.8-1.7,1.8-1.7c1.4,1.8,2.8,3.7,4.2,5.6,1.3,1.9,2.6,3.7,3.8,5.4h6.7v-1.5c-1,0-1.8-.2-2.3-.5-.5-.3-1.1-.8-1.8-1.7-.7-.9-1.8-2.5-3.4-4.6-1.5-2.1-2.9-3.9-4.1-5.4,1.2-1.1,2.1-2,2.8-2.6.7-.7,1.2-1.2,1.5-1.5.5-.4,1.2-1,2.2-1.5s2.1-1,3.3-1.4v-1.4h-9.7v1.4c.6,0,1.2.2,1.9.4.7.2,1,.5,1,.9s0,.3-.2.5c-.1.2-.3.4-.4.5-.9,1-2.1,2.2-3.4,3.6-1.4,1.3-2.6,2.6-3.8,3.8v-2.2c0-.9,0-1.8,0-2.7s0-.3,0-.4V.3l-.3-.3-8.2.5v1.4c.4,0,.9,0,1.6.2.7,0,1.2.2,1.5.5.4.3.7.6.9,1.1.2.5.3,1,.3,1.6v6.8c-.2,0-.5-.1-.7-.2-.9-.2-2-.3-3.3-.3s-1.8.1-2.8.4c-1,.3-1.8.6-2.4,1.1-.8.5-1.4,1.1-1.9,1.7-.5.6-.7,1.3-.7,2s.2,1.3.5,1.8c.4.5.9.8,1.7.8s1.5-.2,2-.7c.5-.4.7-.9.7-1.4s0-1-.2-1.6c-.1-.6-.2-1-.2-1.3.2-.3.7-.5,1.2-.7.6-.2,1.2-.3,1.9-.3,1,0,1.8.2,2.3.6.5.4,1,.9,1.3,1.4.3.5.4,1,.5,1.6,0,.6.1.9.1,1.1v2.2c-.7.4-2.1.9-4.2,1.6-2.1.7-3.4,1.2-4.1,1.4-.5.2-1.1.5-1.7.8-.6.4-1.1.8-1.5,1.2-.5.5-.8,1.1-1.1,1.8-.2.7-.4,1.4-.4,2.3,0,1.6.5,3,1.6,4,1.1,1,2.4,1.5,4.1,1.5ZM23.5,26.3c.4-.7,1-1.3,1.8-1.8.8-.5,1.7-1,2.7-1.4,1-.4,2.1-.7,3.3-1.1v7.8c-.7.7-1.4,1.3-2.2,1.8-.8.5-1.7.8-2.8.8s-1.8-.3-2.5-.9c-.7-.6-1-1.5-1-2.7s.2-1.8.7-2.5Z" fill="#373737" stroke-width="0"/>
    </g>
  </g>
</svg>